HIERARCHY
ROOT hip
{
	OFFSET 0.000000 0.000000 0.000000 
	CHANNELS 6 Xposition Yposition Zposition Xrotation Zrotation Yrotation
	JOINT abdomen
	{
		OFFSET 0.000000 3.402643 0.000000 
		CHANNELS 3 Xrotation Zrotation Yrotation
		JOINT chest
		{
			OFFSET 0.000000 8.438565 -0.680529 
			CHANNELS 3 Xrotation Zrotation Yrotation
			JOINT neck
			{
				OFFSET 0.000000 10.207942 -0.272212 
				CHANNELS 3 Xrotation Zrotation Yrotation
				JOINT head
				{
					OFFSET 0.000000 3.130431 0.000000 
					CHANNELS 3 Xrotation Zrotation Yrotation
					End Site
					{
						OFFSET 0.000000 3.130435 0.000000 
					}
				}
			}
			JOINT lCollar
			{
				OFFSET 3.470700 6.669187 -0.816635 
				CHANNELS 3 Yrotation Zrotation Xrotation
				JOINT lShldr
				{
					OFFSET 3.198488 0.000000 0.000000 
					CHANNELS 3 Zrotation Yrotation Xrotation
					JOINT lForeArm
					{
						OFFSET 10.139888 0.000000 0.000000 
						CHANNELS 3 Yrotation Zrotation Xrotation
						JOINT lHand
						{
							OFFSET 8.370511 0.000000 0.000000 
							CHANNELS 3 Zrotation Yrotation Xrotation
							End Site
							{
								OFFSET 4.083176 0.000000 0.000000 
							}
						}
					}
				}
			}
			JOINT rCollar
			{
				OFFSET -3.470700 6.669187 -0.816635 
				CHANNELS 3 Yrotation Zrotation Xrotation
				JOINT rShldr
				{
					OFFSET -3.198488 0.000000 0.000000 
					CHANNELS 3 Zrotation Yrotation Xrotation
					JOINT rForeArm
					{
						OFFSET -10.139888 0.000000 0.000000 
						CHANNELS 3 Yrotation Zrotation Xrotation
						JOINT rHand
						{
							OFFSET -8.370511 0.000000 0.000000 
							CHANNELS 3 Zrotation Yrotation Xrotation
							End Site
							{
								OFFSET -4.083176 0.000000 0.000000 
							}
						}
					}
				}
			}
		}
	}
	JOINT lThigh
	{
		OFFSET 5.308129 -1.633274 1.361059 
		CHANNELS 3 Xrotation Zrotation Yrotation
		JOINT lShin
		{
			OFFSET -2.041588 -20.007561 0.000000 
			CHANNELS 3 Xrotation Zrotation Yrotation
			JOINT lFoot
			{
				OFFSET 0.000000 -19.190928 -1.224953 
				CHANNELS 3 Xrotation Yrotation Zrotation
				End Site
				{
					OFFSET 0.000000 -2.449906 4.627600 
				}
			}
		}
	}
	JOINT rThigh
	{
		OFFSET -5.308129 -1.633274 1.361059 
		CHANNELS 3 Xrotation Zrotation Yrotation
		JOINT rShin
		{
			OFFSET 2.041588 -20.007561 0.000000 
			CHANNELS 3 Xrotation Zrotation Yrotation
			JOINT rFoot
			{
				OFFSET 0.000000 -19.190928 -1.224953 
				CHANNELS 3 Xrotation Yrotation Zrotation
				End Site
				{
					OFFSET 0.000000 -2.449906 4.627600 
				}
			}
		}
	}
}
MOTION
Frames: 13
Frame Time: 0.033333
-12.534053 47.882000 20.995083 -22.558594 16.142578 -150.358612 40.233315 3.934690 -5.976017 -9.326173 -5.029297 -2.548828 51.063168 8.107644 2.471410 -78.671875 -17.519531 49.508781 2.000000 -2.000000 0.000000 -86.562500 -4.238281 -2.588612 -91.871849 -0.208390 -2.957396 -8.101782 52.455074 -60.825409 -2.000000 2.000000 0.000000 41.513672 -15.634766 43.466793 102.710724 -0.582995 -2.973873 -39.288815 -52.883881 22.387455 -52.138142 30.887482 33.451359 33.731499 -4.338545 -2.989456 3.637360 3.074159 -5.716961 -47.029709 -23.318903 -19.713190 35.702103 4.101359 2.875785 -2.069331 -6.892663 3.954265 
-12.804832 48.118343 20.648397 -20.400391 16.513672 -148.913239 39.706760 3.554285 -5.878062 -9.511719 -4.511719 -2.792969 51.063168 8.107644 2.471410 -78.701180 -16.201170 49.619137 2.000000 -2.000000 0.000000 -85.439453 -2.480469 0.653874 -90.108368 -0.285095 -3.099666 -7.812797 53.155430 -61.477871 -2.000000 2.000000 0.000000 42.304688 -16.103516 43.378906 103.589890 -0.611679 -2.985311 -38.955776 -53.663567 21.870865 -50.709877 30.403736 31.992651 33.389736 -4.348221 -3.129190 2.779368 2.816559 -5.375978 -43.111568 -22.505638 -21.074263 33.589600 4.222396 2.867212 -1.202644 -8.903597 3.120391 
-13.278001 48.401955 20.307491 -18.447268 17.216797 -147.460922 39.199623 2.721774 -5.489325 -9.697266 -3.994141 -2.676461 51.063168 8.107644 2.471410 -78.730469 -14.726561 48.759769 2.000000 -2.000000 0.000000 -82.529297 -2.773438 1.708984 -89.228630 -0.322401 -3.068173 -11.730851 53.475697 -65.585014 -2.000000 2.000000 0.000000 45.156250 -13.642579 41.923824 104.995819 -0.680488 -2.979512 -37.318233 -55.744095 20.383539 -49.421089 30.238754 30.301397 32.863567 -4.382652 -3.095598 2.456006 2.714683 -4.974551 -39.154785 -21.614229 -23.422348 30.759739 4.364817 2.521193 0.563069 -9.543438 2.289035 
-13.739713 48.669815 19.919605 -16.855467 17.871094 -146.266541 38.904091 1.378848 -4.656281 -10.058594 -3.476563 -2.392578 51.063168 8.107644 2.471410 -78.437500 -13.496092 47.402348 2.000000 -2.000000 0.000000 -77.783203 -5.205079 -1.093750 -90.793831 0.091992 -2.837928 -22.365919 53.177715 -74.047668 -2.000000 2.000000 0.000000 48.984371 -7.500000 39.560543 107.094093 -0.965474 -2.956883 -33.605968 -60.013752 17.679596 -48.679604 30.289276 28.514353 32.123310 -4.518375 -2.906234 2.819766 2.679718 -5.030738 -35.497730 -20.478249 -25.844833 27.596859 4.511488 2.309533 2.435022 -10.397124 0.776000 
-14.110703 48.937664 19.577427 -15.830078 18.808594 -145.468750 38.438789 -0.051162 -3.648104 -10.244141 -2.783203 -1.914537 51.063168 8.107644 2.471410 -78.525391 -12.177733 45.742184 2.000000 -2.000000 0.000000 -71.835938 -9.150390 -7.431641 -93.441681 -0.027823 -2.879867 -34.660667 51.438702 -83.160851 -2.000000 2.000000 0.000000 53.447266 0.341797 36.816410 109.202263 -1.074974 -2.924103 -27.453625 -64.943832 12.119202 -48.189861 30.149937 27.516993 31.972050 -4.415906 -3.040786 2.667377 2.360286 -4.562447 -33.006386 -19.480349 -27.618994 24.950851 4.628610 2.099761 4.550730 -11.426022 -0.562319 
-14.453807 49.410351 19.674860 -15.761719 20.195314 -144.918503 37.998165 -1.593437 -2.287287 -10.595703 -2.441406 -1.494141 51.063168 8.107644 2.471410 -79.160156 -10.771484 44.736328 2.000000 -2.000000 0.000000 -63.994141 -13.789063 -15.890999 -93.958694 0.217038 -2.874517 -46.578381 48.438675 -92.914429 -2.000000 2.000000 0.000000 57.841797 9.453125 34.112934 111.309692 -1.185365 -3.213851 -20.337965 -69.747063 5.759511 -49.178612 30.135002 25.833399 31.449839 -4.543211 -2.837579 3.000164 2.104630 -4.353454 -32.779930 -18.696093 -27.311798 23.713171 4.519892 2.105319 11.021684 -11.825599 1.067320 
-14.544990 49.733349 19.716404 -16.406250 22.519533 -144.927902 37.725368 -3.030972 -1.263417 -10.761719 -1.923828 -1.055015 51.063168 8.107644 2.471410 -80.332031 -9.287109 44.619144 2.000000 -2.000000 0.000000 -53.251949 -18.808596 -31.360571 -89.221275 -0.199921 -2.811214 -54.802288 45.820740 -100.715225 -2.000000 2.000000 0.000000 61.972656 18.027344 31.679684 112.007538 -1.244818 -3.031707 -10.647050 -73.339134 -3.518439 -51.152302 30.205074 24.278641 31.411709 -4.444516 -2.847417 2.660738 1.933639 -4.422653 -34.402794 -17.527359 -26.024063 23.361979 4.695783 2.119825 14.753099 -12.864841 2.714283 
-14.824796 49.946064 19.876677 -17.695311 24.931643 -145.425568 37.286407 -4.481098 -0.234573 -11.132812 -1.582031 -0.644801 51.063168 8.107644 2.471410 -81.533203 -7.968749 44.570313 2.000000 -2.000000 0.000000 -39.472652 -19.833984 -51.634171 -82.551445 -0.629453 -2.796073 -62.386929 42.831516 -108.605186 -2.000000 2.000000 0.000000 67.607422 27.724609 29.818995 110.596153 -1.206796 -2.843724 -0.627693 -76.647789 -14.136033 -53.572269 30.583279 22.866812 31.455921 -4.444804 -2.997091 1.699938 1.893015 -4.528838 -36.364845 -16.686665 -25.594814 23.014784 4.716184 1.929624 19.219193 -12.642976 3.609636 
-15.262788 49.898792 19.830736 -19.277344 27.265625 -146.001389 36.983192 -5.470644 0.539785 -11.298828 -1.396484 -0.253906 51.063168 8.107644 2.471410 -81.884766 -6.992187 44.091797 2.000000 -2.000000 0.000000 -29.404295 -18.212891 -65.940552 -78.152672 -0.444920 -2.650251 -67.442139 40.692108 -113.245224 -2.000000 2.000000 0.000000 73.818352 38.789063 28.945311 107.601585 -1.453214 -2.643099 9.914794 -79.166771 -25.855066 -55.976273 30.536894 21.258163 31.254139 -4.450233 -2.806997 -0.121618 2.141762 -5.027118 -37.830402 -15.984786 -26.535009 22.842552 4.753920 2.078493 20.524824 -12.335898 3.368795 
-15.720101 49.646694 19.555439 -20.654297 29.111328 -146.953125 36.676537 -6.151576 0.909245 -11.298828 -1.396484 -0.253906 51.063168 8.107644 2.471410 -81.923828 -6.064453 43.027348 2.000000 -2.000000 0.000000 -23.544920 -19.218750 -69.251259 -78.336761 -0.627325 -2.590746 -69.694427 42.680252 -112.695557 -2.000000 2.000000 0.000000 78.291016 44.199219 27.916965 105.498032 -1.353599 -2.842665 15.707311 -80.170914 -31.925900 -58.646580 30.784550 20.048494 32.865440 -4.372479 -3.073408 -2.602291 2.398845 -5.033761 -38.872196 -15.697504 -28.594677 22.463535 4.305303 2.122422 19.208231 -11.961212 2.000692 
-16.073965 49.441864 19.398876 -21.210938 29.853518 -147.290070 36.347805 -6.525107 0.902650 -11.474609 -1.582031 -0.449219 51.063168 8.107644 2.471410 -81.748047 -5.009765 42.236324 2.000000 -2.000000 0.000000 -20.615236 -22.666016 -65.380859 -80.970551 -0.553719 -2.839580 -70.013458 46.509476 -109.710945 -2.000000 2.000000 0.000000 78.896484 40.009766 25.680105 106.195389 -1.414217 -2.640837 16.290426 -79.662720 -31.127531 -60.189541 31.312101 18.939377 33.733727 -4.327834 -2.957331 -2.987169 2.680177 -5.244431 -39.097187 -15.541637 -29.065430 22.660446 4.793902 1.613568 18.489254 -12.418561 0.440173 
-16.267330 49.394592 19.464140 -21.416014 29.824219 -147.729523 36.189125 -6.679289 0.813572 -11.474610 -1.757813 -0.478516 51.063168 8.107644 2.471410 -81.455078 -4.130859 41.308594 2.000000 -2.000000 0.000000 -20.947266 -25.927732 -59.115593 -83.437508 -0.428815 -2.709931 -68.772583 48.741821 -106.676315 -2.000000 2.000000 0.000000 78.056641 30.029295 23.417969 107.953117 -1.472712 -2.644229 9.211185 -77.980751 -21.760891 -59.609451 31.260044 19.121820 33.752197 -4.335724 -2.970851 -3.169506 2.759182 -5.200131 -39.301495 -15.881959 -30.141792 22.644604 4.745481 2.060149 19.665073 -11.974250 -0.842613 
-16.380501 49.489132 19.568056 -21.347656 29.511721 -147.983459 36.028690 -6.913345 0.462795 -11.464844 -2.099609 -0.703125 51.063168 8.107644 2.471410 -80.664063 -3.466797 40.468746 2.000000 -2.000000 0.000000 -25.527344 -27.724611 -53.051418 -85.719727 -0.384442 -2.956960 -66.378174 49.400375 -105.143875 -2.000000 2.000000 0.000000 75.927734 21.123049 21.937113 109.525345 -1.501120 -2.997638 1.600367 -75.988022 -12.928413 -58.726868 31.245903 19.643070 33.189068 -4.347550 -2.937598 -3.126110 2.575198 -5.296833 -38.873184 -16.186440 -29.928556 22.837776 4.725640 2.082253 20.994911 -10.774496 -0.153316 
